#!OML:ASF X:\für Bonn\!DataBase\2005_08_10_Bjorn_Final\c3d\bjorn.ASF
:FULLY-SPECIFIED
:DEGREES
173
root -0.120047 18.2978 2.966 -181.848 -4.80502 177.745
lowerback 8.47643 3.79347 -2.92221
upperback 11.7689 3.30437 -2.7218
thorax 7.65493 0.785174 -1.41177
lowerneck -4.27202 2.75569 -3.29162
upperneck -0.434192 3.71524 -5.54282
head 0.62109 1.72411 -1.09319
rclavicle -1.19271e-015 -2.38542e-015
rhumerus -29.7676 -11.5887 -86.3318
rradius 39.5765
rwrist -0.869944
rhand -9.64054 21.6728
rfingers 7.12502
rthumb 16.3298 -7.65972
lclavicle -1.19271e-015 -2.38542e-015
lhumerus -8.71611 -43.9175 56.48
lradius 66.5662
lwrist -6.99836
lhand -50.9408 -28.6451
lfingers 7.12502
lthumb -23.4918 -0.0594042
rfemur -28.7562 6.76433 8.90304
rtibia 47.7474
rfoot -14.7975 16.4405
rtoes -8.50412
lfemur -11.5706 -4.87447 -17.6303
ltibia 52.3028
lfoot -21.0934 8.17869
ltoes -28.5382
174
root -0.159345 18.2181 3.04622 -181.751 -4.72238 177.621
lowerback 8.87532 3.86637 -3.07483
upperback 12.1544 3.26501 -2.68396
thorax 7.85016 0.698662 -1.3094
lowerneck -4.80694 2.75483 -3.17836
upperneck -0.572697 3.72288 -5.61083
head 0.672096 1.71936 -1.12731
rclavicle 8.74653e-015 -7.95139e-016
rhumerus -29.1778 -11.948 -86.6083
rradius 39.2823
rwrist -0.811874
rhand -9.59478 21.5879
rfingers 7.12502
rthumb 16.3738 -7.74098
lclavicle 8.74653e-015 -7.95139e-016
lhumerus -8.51643 -44.0102 56.892
lradius 66.2308
lwrist -6.7012
lhand -50.6912 -28.5496
lfingers 7.12502
lthumb -23.2524 0.0665418
rfemur -29.9041 7.00078 8.55721
rtibia 49.111
rfoot -14.9745 16.3022
rtoes -9.59478
lfemur -11.3819 -4.48688 -17.9327
ltibia 51.729
lfoot -22.8521 7.88895
ltoes -26.6962
175
root -0.196859 18.133 3.12608 -181.67 -4.66977 177.428
lowerback 9.26008 3.93846 -3.31344
upperback 12.5495 3.2139 -2.65002
thorax 8.0619 0.595078 -1.16377
lowerneck -5.48908 2.7509 -3.05671
upperneck -0.590437 3.73713 -5.72647
head 0.787623 1.70933 -1.1756
rclavicle 9.93923e-015 -1.70955e-014
rhumerus -28.5911 -12.2099 -86.8662
rradius 39.0144
rwrist -0.761998
rhand -9.64505 21.5974
rfingers 7.12502
rthumb 16.3254 -7.73543
lclavicle 9.93923e-015 -1.70955e-014
lhumerus -8.34038 -44.0784 57.3598
lradius 65.8647
lwrist -6.46696
lhand -50.3382 -28.3774
lfingers 7.12502
lthumb -22.9137 0.281124
rfemur -31.0478 7.25842 8.13929
rtibia 50.5324
rfoot -15.1595 16.1108
rtoes -10.692
lfemur -11.3573 -3.95852 -18.2788
ltibia 51.449
lfoot -24.4353 7.6048
ltoes -25.5193
176
root -0.233042 18.051 3.20471 -181.561 -4.62259 177.237
lowerback 9.584 4.0102 -3.5753
upperback 12.9256 3.16682 -2.61107
thorax 8.28783 0.491691 -0.998141
lowerneck -6.19568 2.73916 -2.95412
upperneck -0.577727 3.74245 -5.82624
head 0.916873 1.69278 -1.21609
rclavicle 3.37934e-014 -9.81996e-014
rhumerus -28.0512 -12.4395 -87.1166
rradius 38.7629
rwrist -0.579692
rhand -9.81301 21.691
rfingers 7.12502
rthumb 16.1637 -7.65501
lclavicle 3.37934e-014 -9.81996e-014
lhumerus -8.19813 -44.0556 57.9958
lradius 65.3789
lwrist -6.38761
lhand -50.0307 -28.2616
lfingers 7.12502
lthumb -22.6185 0.433123
rfemur -32.1939 7.52232 7.73438
rtibia 51.9462
rfoot -15.4102 15.8083
rtoes -12.2717
lfemur -11.5929 -3.30702 -18.5816
ltibia 51.4563
lfoot -25.6571 7.39778
ltoes -24.8766
